<mxfile host="app.diagrams.net" agent="Mozilla/5.0 (Macintosh; Intel Mac OS X 10_15_7) AppleWebKit/537.36 (KHTML, like Gecko) Chrome/135.0.0.0 Safari/537.36" version="27.0.2">
  <diagram name="Page-1" id="IVsUcbPsKSugoWoDHEek">
    <mxGraphModel dx="1826" dy="2338" grid="1" gridSize="10" guides="1" tooltips="1" connect="1" arrows="1" fold="1" page="0" pageScale="1" pageWidth="850" pageHeight="1100" math="0" shadow="0">
      <root>
        <mxCell id="0" />
        <mxCell id="1" parent="0" />
        <mxCell id="ThAOJ68QW_HtHxLDYENI-25" value="" style="group" vertex="1" connectable="0" parent="1">
          <mxGeometry x="-290" y="-380" width="79" height="87" as="geometry" />
        </mxCell>
        <mxCell id="ThAOJ68QW_HtHxLDYENI-20" value="" style="swimlane;fontStyle=0;childLayout=stackLayout;horizontal=1;startSize=0;horizontalStack=0;resizeParent=1;resizeParentMax=0;resizeLast=0;collapsible=0;marginBottom=0;whiteSpace=wrap;html=1;strokeColor=none;fillColor=none;" vertex="1" parent="ThAOJ68QW_HtHxLDYENI-25">
          <mxGeometry y="27" width="79" height="640" as="geometry" />
        </mxCell>
        <mxCell id="ThAOJ68QW_HtHxLDYENI-80" style="edgeStyle=none;curved=1;rounded=0;orthogonalLoop=1;jettySize=auto;html=1;fontSize=12;startSize=8;endSize=8;" edge="1" parent="ThAOJ68QW_HtHxLDYENI-20" source="ThAOJ68QW_HtHxLDYENI-21" target="ThAOJ68QW_HtHxLDYENI-22">
          <mxGeometry relative="1" as="geometry" />
        </mxCell>
        <mxCell id="ThAOJ68QW_HtHxLDYENI-21" value="" style="text;align=left;verticalAlign=middle;spacingLeft=10;spacingRight=10;overflow=hidden;points=[[0,0.5],[1,0.5]];portConstraint=eastwest;rotatable=0;whiteSpace=wrap;html=1;shape=mxgraph.bootstrap.topButton;rSize=5;fillColor=#f5f5f5;fontColor=#333333;strokeColor=#666666;" vertex="1" parent="ThAOJ68QW_HtHxLDYENI-20">
          <mxGeometry width="79" height="20" as="geometry" />
        </mxCell>
        <mxCell id="ThAOJ68QW_HtHxLDYENI-22" value="" style="text;align=left;verticalAlign=middle;spacingLeft=10;spacingRight=10;overflow=hidden;points=[[0,0.5],[1,0.5]];portConstraint=eastwest;rotatable=0;whiteSpace=wrap;html=1;rSize=5;fillColor=#f5f5f5;fontColor=#333333;strokeColor=#666666;" vertex="1" parent="ThAOJ68QW_HtHxLDYENI-20">
          <mxGeometry y="20" width="79" height="20" as="geometry" />
        </mxCell>
        <mxCell id="ThAOJ68QW_HtHxLDYENI-44" value="" style="text;align=left;verticalAlign=middle;spacingLeft=10;spacingRight=10;overflow=hidden;points=[[0,0.5],[1,0.5]];portConstraint=eastwest;rotatable=0;whiteSpace=wrap;html=1;rSize=5;fillColor=#f5f5f5;fontColor=#333333;strokeColor=#666666;" vertex="1" parent="ThAOJ68QW_HtHxLDYENI-20">
          <mxGeometry y="40" width="79" height="20" as="geometry" />
        </mxCell>
        <mxCell id="ThAOJ68QW_HtHxLDYENI-45" value="" style="text;align=left;verticalAlign=middle;spacingLeft=10;spacingRight=10;overflow=hidden;points=[[0,0.5],[1,0.5]];portConstraint=eastwest;rotatable=0;whiteSpace=wrap;html=1;rSize=5;fillColor=#f5f5f5;fontColor=#333333;strokeColor=#666666;" vertex="1" parent="ThAOJ68QW_HtHxLDYENI-20">
          <mxGeometry y="60" width="79" height="20" as="geometry" />
        </mxCell>
        <mxCell id="ThAOJ68QW_HtHxLDYENI-48" value="" style="text;align=left;verticalAlign=middle;spacingLeft=10;spacingRight=10;overflow=hidden;points=[[0,0.5],[1,0.5]];portConstraint=eastwest;rotatable=0;whiteSpace=wrap;html=1;rSize=5;fillColor=#f5f5f5;fontColor=#333333;strokeColor=#666666;" vertex="1" parent="ThAOJ68QW_HtHxLDYENI-20">
          <mxGeometry y="80" width="79" height="20" as="geometry" />
        </mxCell>
        <mxCell id="ThAOJ68QW_HtHxLDYENI-49" value="" style="text;align=left;verticalAlign=middle;spacingLeft=10;spacingRight=10;overflow=hidden;points=[[0,0.5],[1,0.5]];portConstraint=eastwest;rotatable=0;whiteSpace=wrap;html=1;rSize=5;fillColor=#f5f5f5;fontColor=#333333;strokeColor=#666666;" vertex="1" parent="ThAOJ68QW_HtHxLDYENI-20">
          <mxGeometry y="100" width="79" height="20" as="geometry" />
        </mxCell>
        <mxCell id="ThAOJ68QW_HtHxLDYENI-50" value="" style="text;align=left;verticalAlign=middle;spacingLeft=10;spacingRight=10;overflow=hidden;points=[[0,0.5],[1,0.5]];portConstraint=eastwest;rotatable=0;whiteSpace=wrap;html=1;rSize=5;fillColor=#f5f5f5;fontColor=#333333;strokeColor=#666666;" vertex="1" parent="ThAOJ68QW_HtHxLDYENI-20">
          <mxGeometry y="120" width="79" height="20" as="geometry" />
        </mxCell>
        <mxCell id="ThAOJ68QW_HtHxLDYENI-51" value="" style="text;align=left;verticalAlign=middle;spacingLeft=10;spacingRight=10;overflow=hidden;points=[[0,0.5],[1,0.5]];portConstraint=eastwest;rotatable=0;whiteSpace=wrap;html=1;rSize=5;fillColor=#f5f5f5;fontColor=#333333;strokeColor=#666666;" vertex="1" parent="ThAOJ68QW_HtHxLDYENI-20">
          <mxGeometry y="140" width="79" height="20" as="geometry" />
        </mxCell>
        <mxCell id="ThAOJ68QW_HtHxLDYENI-81" value="" style="text;align=left;verticalAlign=middle;spacingLeft=10;spacingRight=10;overflow=hidden;points=[[0,0.5],[1,0.5]];portConstraint=eastwest;rotatable=0;whiteSpace=wrap;html=1;shape=mxgraph.bootstrap.topButton;rSize=5;fillColor=#f5f5f5;fontColor=#333333;strokeColor=#666666;" vertex="1" parent="ThAOJ68QW_HtHxLDYENI-20">
          <mxGeometry y="160" width="79" height="20" as="geometry" />
        </mxCell>
        <mxCell id="ThAOJ68QW_HtHxLDYENI-82" value="" style="text;align=left;verticalAlign=middle;spacingLeft=10;spacingRight=10;overflow=hidden;points=[[0,0.5],[1,0.5]];portConstraint=eastwest;rotatable=0;whiteSpace=wrap;html=1;rSize=5;fillColor=#f5f5f5;fontColor=#333333;strokeColor=#666666;" vertex="1" parent="ThAOJ68QW_HtHxLDYENI-20">
          <mxGeometry y="180" width="79" height="20" as="geometry" />
        </mxCell>
        <mxCell id="ThAOJ68QW_HtHxLDYENI-83" value="" style="text;align=left;verticalAlign=middle;spacingLeft=10;spacingRight=10;overflow=hidden;points=[[0,0.5],[1,0.5]];portConstraint=eastwest;rotatable=0;whiteSpace=wrap;html=1;rSize=5;fillColor=#f5f5f5;fontColor=#333333;strokeColor=#666666;" vertex="1" parent="ThAOJ68QW_HtHxLDYENI-20">
          <mxGeometry y="200" width="79" height="20" as="geometry" />
        </mxCell>
        <mxCell id="ThAOJ68QW_HtHxLDYENI-84" value="" style="text;align=left;verticalAlign=middle;spacingLeft=10;spacingRight=10;overflow=hidden;points=[[0,0.5],[1,0.5]];portConstraint=eastwest;rotatable=0;whiteSpace=wrap;html=1;rSize=5;fillColor=#f5f5f5;fontColor=#333333;strokeColor=#666666;" vertex="1" parent="ThAOJ68QW_HtHxLDYENI-20">
          <mxGeometry y="220" width="79" height="20" as="geometry" />
        </mxCell>
        <mxCell id="ThAOJ68QW_HtHxLDYENI-85" value="" style="text;align=left;verticalAlign=middle;spacingLeft=10;spacingRight=10;overflow=hidden;points=[[0,0.5],[1,0.5]];portConstraint=eastwest;rotatable=0;whiteSpace=wrap;html=1;rSize=5;fillColor=#f5f5f5;fontColor=#333333;strokeColor=#666666;" vertex="1" parent="ThAOJ68QW_HtHxLDYENI-20">
          <mxGeometry y="240" width="79" height="20" as="geometry" />
        </mxCell>
        <mxCell id="ThAOJ68QW_HtHxLDYENI-86" value="" style="text;align=left;verticalAlign=middle;spacingLeft=10;spacingRight=10;overflow=hidden;points=[[0,0.5],[1,0.5]];portConstraint=eastwest;rotatable=0;whiteSpace=wrap;html=1;rSize=5;fillColor=#f5f5f5;fontColor=#333333;strokeColor=#666666;" vertex="1" parent="ThAOJ68QW_HtHxLDYENI-20">
          <mxGeometry y="260" width="79" height="20" as="geometry" />
        </mxCell>
        <mxCell id="ThAOJ68QW_HtHxLDYENI-87" value="" style="text;align=left;verticalAlign=middle;spacingLeft=10;spacingRight=10;overflow=hidden;points=[[0,0.5],[1,0.5]];portConstraint=eastwest;rotatable=0;whiteSpace=wrap;html=1;rSize=5;fillColor=#f5f5f5;fontColor=#333333;strokeColor=#666666;" vertex="1" parent="ThAOJ68QW_HtHxLDYENI-20">
          <mxGeometry y="280" width="79" height="20" as="geometry" />
        </mxCell>
        <mxCell id="ThAOJ68QW_HtHxLDYENI-88" value="" style="text;align=left;verticalAlign=middle;spacingLeft=10;spacingRight=10;overflow=hidden;points=[[0,0.5],[1,0.5]];portConstraint=eastwest;rotatable=0;whiteSpace=wrap;html=1;rSize=5;fillColor=#f5f5f5;fontColor=#333333;strokeColor=#666666;" vertex="1" parent="ThAOJ68QW_HtHxLDYENI-20">
          <mxGeometry y="300" width="79" height="20" as="geometry" />
        </mxCell>
        <mxCell id="ThAOJ68QW_HtHxLDYENI-90" value="" style="text;align=left;verticalAlign=middle;spacingLeft=10;spacingRight=10;overflow=hidden;points=[[0,0.5],[1,0.5]];portConstraint=eastwest;rotatable=0;whiteSpace=wrap;html=1;rSize=5;fillColor=#f5f5f5;fontColor=#333333;strokeColor=#666666;" vertex="1" parent="ThAOJ68QW_HtHxLDYENI-20">
          <mxGeometry y="320" width="79" height="20" as="geometry" />
        </mxCell>
        <mxCell id="ThAOJ68QW_HtHxLDYENI-89" value="" style="text;align=left;verticalAlign=middle;spacingLeft=10;spacingRight=10;overflow=hidden;points=[[0,0.5],[1,0.5]];portConstraint=eastwest;rotatable=0;whiteSpace=wrap;html=1;shape=mxgraph.bootstrap.topButton;rSize=5;fillColor=#f5f5f5;fontColor=#333333;strokeColor=#666666;" vertex="1" parent="ThAOJ68QW_HtHxLDYENI-20">
          <mxGeometry y="340" width="79" height="20" as="geometry" />
        </mxCell>
        <mxCell id="ThAOJ68QW_HtHxLDYENI-91" value="" style="text;align=left;verticalAlign=middle;spacingLeft=10;spacingRight=10;overflow=hidden;points=[[0,0.5],[1,0.5]];portConstraint=eastwest;rotatable=0;whiteSpace=wrap;html=1;rSize=5;fillColor=#f5f5f5;fontColor=#333333;strokeColor=#666666;" vertex="1" parent="ThAOJ68QW_HtHxLDYENI-20">
          <mxGeometry y="360" width="79" height="20" as="geometry" />
        </mxCell>
        <mxCell id="ThAOJ68QW_HtHxLDYENI-92" value="" style="text;align=left;verticalAlign=middle;spacingLeft=10;spacingRight=10;overflow=hidden;points=[[0,0.5],[1,0.5]];portConstraint=eastwest;rotatable=0;whiteSpace=wrap;html=1;rSize=5;fillColor=#f5f5f5;fontColor=#333333;strokeColor=#666666;" vertex="1" parent="ThAOJ68QW_HtHxLDYENI-20">
          <mxGeometry y="380" width="79" height="20" as="geometry" />
        </mxCell>
        <mxCell id="ThAOJ68QW_HtHxLDYENI-93" value="" style="text;align=left;verticalAlign=middle;spacingLeft=10;spacingRight=10;overflow=hidden;points=[[0,0.5],[1,0.5]];portConstraint=eastwest;rotatable=0;whiteSpace=wrap;html=1;rSize=5;fillColor=#f5f5f5;fontColor=#333333;strokeColor=#666666;" vertex="1" parent="ThAOJ68QW_HtHxLDYENI-20">
          <mxGeometry y="400" width="79" height="20" as="geometry" />
        </mxCell>
        <mxCell id="ThAOJ68QW_HtHxLDYENI-94" value="" style="text;align=left;verticalAlign=middle;spacingLeft=10;spacingRight=10;overflow=hidden;points=[[0,0.5],[1,0.5]];portConstraint=eastwest;rotatable=0;whiteSpace=wrap;html=1;rSize=5;fillColor=#f5f5f5;fontColor=#333333;strokeColor=#666666;" vertex="1" parent="ThAOJ68QW_HtHxLDYENI-20">
          <mxGeometry y="420" width="79" height="20" as="geometry" />
        </mxCell>
        <mxCell id="ThAOJ68QW_HtHxLDYENI-95" value="" style="text;align=left;verticalAlign=middle;spacingLeft=10;spacingRight=10;overflow=hidden;points=[[0,0.5],[1,0.5]];portConstraint=eastwest;rotatable=0;whiteSpace=wrap;html=1;rSize=5;fillColor=#f5f5f5;fontColor=#333333;strokeColor=#666666;" vertex="1" parent="ThAOJ68QW_HtHxLDYENI-20">
          <mxGeometry y="440" width="79" height="20" as="geometry" />
        </mxCell>
        <mxCell id="ThAOJ68QW_HtHxLDYENI-96" value="" style="text;align=left;verticalAlign=middle;spacingLeft=10;spacingRight=10;overflow=hidden;points=[[0,0.5],[1,0.5]];portConstraint=eastwest;rotatable=0;whiteSpace=wrap;html=1;rSize=5;fillColor=#f5f5f5;fontColor=#333333;strokeColor=#666666;" vertex="1" parent="ThAOJ68QW_HtHxLDYENI-20">
          <mxGeometry y="460" width="79" height="20" as="geometry" />
        </mxCell>
        <mxCell id="ThAOJ68QW_HtHxLDYENI-98" value="" style="text;align=left;verticalAlign=middle;spacingLeft=10;spacingRight=10;overflow=hidden;points=[[0,0.5],[1,0.5]];portConstraint=eastwest;rotatable=0;whiteSpace=wrap;html=1;rSize=5;fillColor=#f5f5f5;fontColor=#333333;strokeColor=#666666;" vertex="1" parent="ThAOJ68QW_HtHxLDYENI-20">
          <mxGeometry y="480" width="79" height="20" as="geometry" />
        </mxCell>
        <mxCell id="ThAOJ68QW_HtHxLDYENI-99" value="" style="text;align=left;verticalAlign=middle;spacingLeft=10;spacingRight=10;overflow=hidden;points=[[0,0.5],[1,0.5]];portConstraint=eastwest;rotatable=0;whiteSpace=wrap;html=1;rSize=5;fillColor=#f5f5f5;fontColor=#333333;strokeColor=#666666;" vertex="1" parent="ThAOJ68QW_HtHxLDYENI-20">
          <mxGeometry y="500" width="79" height="20" as="geometry" />
        </mxCell>
        <mxCell id="ThAOJ68QW_HtHxLDYENI-100" value="" style="text;align=left;verticalAlign=middle;spacingLeft=10;spacingRight=10;overflow=hidden;points=[[0,0.5],[1,0.5]];portConstraint=eastwest;rotatable=0;whiteSpace=wrap;html=1;rSize=5;fillColor=#f5f5f5;fontColor=#333333;strokeColor=#666666;" vertex="1" parent="ThAOJ68QW_HtHxLDYENI-20">
          <mxGeometry y="520" width="79" height="20" as="geometry" />
        </mxCell>
        <mxCell id="ThAOJ68QW_HtHxLDYENI-101" value="" style="text;align=left;verticalAlign=middle;spacingLeft=10;spacingRight=10;overflow=hidden;points=[[0,0.5],[1,0.5]];portConstraint=eastwest;rotatable=0;whiteSpace=wrap;html=1;rSize=5;fillColor=#f5f5f5;fontColor=#333333;strokeColor=#666666;" vertex="1" parent="ThAOJ68QW_HtHxLDYENI-20">
          <mxGeometry y="540" width="79" height="20" as="geometry" />
        </mxCell>
        <mxCell id="ThAOJ68QW_HtHxLDYENI-102" value="" style="text;align=left;verticalAlign=middle;spacingLeft=10;spacingRight=10;overflow=hidden;points=[[0,0.5],[1,0.5]];portConstraint=eastwest;rotatable=0;whiteSpace=wrap;html=1;rSize=5;fillColor=#f5f5f5;fontColor=#333333;strokeColor=#666666;" vertex="1" parent="ThAOJ68QW_HtHxLDYENI-20">
          <mxGeometry y="560" width="79" height="20" as="geometry" />
        </mxCell>
        <mxCell id="ThAOJ68QW_HtHxLDYENI-97" value="" style="text;align=left;verticalAlign=middle;spacingLeft=10;spacingRight=10;overflow=hidden;points=[[0,0.5],[1,0.5]];portConstraint=eastwest;rotatable=0;whiteSpace=wrap;html=1;shape=mxgraph.bootstrap.topButton;rSize=5;fillColor=#f5f5f5;fontColor=#333333;strokeColor=#666666;" vertex="1" parent="ThAOJ68QW_HtHxLDYENI-20">
          <mxGeometry y="580" width="79" height="20" as="geometry" />
        </mxCell>
        <mxCell id="ThAOJ68QW_HtHxLDYENI-103" value="" style="text;align=left;verticalAlign=middle;spacingLeft=10;spacingRight=10;overflow=hidden;points=[[0,0.5],[1,0.5]];portConstraint=eastwest;rotatable=0;whiteSpace=wrap;html=1;rSize=5;fillColor=#f5f5f5;fontColor=#333333;strokeColor=#666666;" vertex="1" parent="ThAOJ68QW_HtHxLDYENI-20">
          <mxGeometry y="600" width="79" height="20" as="geometry" />
        </mxCell>
        <mxCell id="ThAOJ68QW_HtHxLDYENI-104" value="" style="text;align=left;verticalAlign=middle;spacingLeft=10;spacingRight=10;overflow=hidden;points=[[0,0.5],[1,0.5]];portConstraint=eastwest;rotatable=0;whiteSpace=wrap;html=1;rSize=5;fillColor=#f5f5f5;fontColor=#333333;strokeColor=#666666;" vertex="1" parent="ThAOJ68QW_HtHxLDYENI-20">
          <mxGeometry y="620" width="79" height="20" as="geometry" />
        </mxCell>
        <mxCell id="ThAOJ68QW_HtHxLDYENI-173" value="" style="curved=1;endArrow=classic;html=1;rounded=0;fontSize=12;startSize=8;endSize=8;entryX=0;entryY=1;entryDx=0;entryDy=0;" edge="1" parent="ThAOJ68QW_HtHxLDYENI-20" target="ThAOJ68QW_HtHxLDYENI-56">
          <mxGeometry width="50" height="50" relative="1" as="geometry">
            <mxPoint x="60" y="250" as="sourcePoint" />
            <mxPoint x="110" y="200" as="targetPoint" />
            <Array as="points">
              <mxPoint x="120" y="263" />
              <mxPoint x="140" y="293" />
            </Array>
          </mxGeometry>
        </mxCell>
        <mxCell id="ThAOJ68QW_HtHxLDYENI-24" value="5" style="rounded=0;whiteSpace=wrap;html=1;" vertex="1" parent="ThAOJ68QW_HtHxLDYENI-25">
          <mxGeometry width="29" height="27" as="geometry" />
        </mxCell>
        <mxCell id="ThAOJ68QW_HtHxLDYENI-26" value="" style="group" vertex="1" connectable="0" parent="1">
          <mxGeometry x="-10" y="-450" width="79" height="87" as="geometry" />
        </mxCell>
        <mxCell id="ThAOJ68QW_HtHxLDYENI-27" value="" style="swimlane;fontStyle=0;childLayout=stackLayout;horizontal=1;startSize=0;horizontalStack=0;resizeParent=1;resizeParentMax=0;resizeLast=0;collapsible=0;marginBottom=0;whiteSpace=wrap;html=1;strokeColor=none;fillColor=none;" vertex="1" parent="ThAOJ68QW_HtHxLDYENI-26">
          <mxGeometry y="27" width="79" height="60" as="geometry" />
        </mxCell>
        <mxCell id="ThAOJ68QW_HtHxLDYENI-28" value="K&lt;sub&gt;2&lt;/sub&gt;" style="text;align=left;verticalAlign=middle;spacingLeft=10;spacingRight=10;overflow=hidden;points=[[0,0.5],[1,0.5]];portConstraint=eastwest;rotatable=0;whiteSpace=wrap;html=1;shape=mxgraph.bootstrap.topButton;rSize=5;fillColor=#f5f5f5;fontColor=#333333;strokeColor=#666666;" vertex="1" parent="ThAOJ68QW_HtHxLDYENI-27">
          <mxGeometry width="79" height="30" as="geometry" />
        </mxCell>
        <mxCell id="ThAOJ68QW_HtHxLDYENI-29" value="K&lt;span style=&quot;font-size: 10px;&quot;&gt;&lt;sub&gt;6&lt;/sub&gt;&lt;/span&gt;" style="text;align=left;verticalAlign=middle;spacingLeft=10;spacingRight=10;overflow=hidden;points=[[0,0.5],[1,0.5]];portConstraint=eastwest;rotatable=0;whiteSpace=wrap;html=1;rSize=5;fillColor=#f5f5f5;fontColor=#333333;strokeColor=#666666;" vertex="1" parent="ThAOJ68QW_HtHxLDYENI-27">
          <mxGeometry y="30" width="79" height="30" as="geometry" />
        </mxCell>
        <mxCell id="ThAOJ68QW_HtHxLDYENI-30" value="3" style="rounded=0;whiteSpace=wrap;html=1;" vertex="1" parent="ThAOJ68QW_HtHxLDYENI-26">
          <mxGeometry width="29" height="27" as="geometry" />
        </mxCell>
        <mxCell id="ThAOJ68QW_HtHxLDYENI-31" value="" style="group" vertex="1" connectable="0" parent="1">
          <mxGeometry x="-10" y="160" width="79" height="87" as="geometry" />
        </mxCell>
        <mxCell id="ThAOJ68QW_HtHxLDYENI-32" value="" style="swimlane;fontStyle=0;childLayout=stackLayout;horizontal=1;startSize=0;horizontalStack=0;resizeParent=1;resizeParentMax=0;resizeLast=0;collapsible=0;marginBottom=0;whiteSpace=wrap;html=1;strokeColor=none;fillColor=none;" vertex="1" parent="ThAOJ68QW_HtHxLDYENI-31">
          <mxGeometry y="27" width="79" height="60" as="geometry" />
        </mxCell>
        <mxCell id="ThAOJ68QW_HtHxLDYENI-33" value="K&lt;sub&gt;0&lt;/sub&gt;" style="text;align=left;verticalAlign=middle;spacingLeft=10;spacingRight=10;overflow=hidden;points=[[0,0.5],[1,0.5]];portConstraint=eastwest;rotatable=0;whiteSpace=wrap;html=1;shape=mxgraph.bootstrap.topButton;rSize=5;fillColor=#f5f5f5;fontColor=#333333;strokeColor=#666666;" vertex="1" parent="ThAOJ68QW_HtHxLDYENI-32">
          <mxGeometry width="79" height="30" as="geometry" />
        </mxCell>
        <mxCell id="ThAOJ68QW_HtHxLDYENI-34" value="" style="text;align=left;verticalAlign=middle;spacingLeft=10;spacingRight=10;overflow=hidden;points=[[0,0.5],[1,0.5]];portConstraint=eastwest;rotatable=0;whiteSpace=wrap;html=1;rSize=5;fillColor=#f5f5f5;fontColor=#333333;strokeColor=#666666;" vertex="1" parent="ThAOJ68QW_HtHxLDYENI-32">
          <mxGeometry y="30" width="79" height="30" as="geometry" />
        </mxCell>
        <mxCell id="ThAOJ68QW_HtHxLDYENI-35" value="1" style="rounded=0;whiteSpace=wrap;html=1;" vertex="1" parent="ThAOJ68QW_HtHxLDYENI-31">
          <mxGeometry width="29" height="27" as="geometry" />
        </mxCell>
        <mxCell id="ThAOJ68QW_HtHxLDYENI-37" value="" style="curved=1;endArrow=classic;html=1;rounded=0;fontSize=12;startSize=8;endSize=8;" edge="1" parent="1">
          <mxGeometry width="50" height="50" relative="1" as="geometry">
            <mxPoint x="-230" y="172.49" as="sourcePoint" />
            <mxPoint x="-10" y="198" as="targetPoint" />
            <Array as="points">
              <mxPoint x="-180" y="213" />
            </Array>
          </mxGeometry>
        </mxCell>
        <mxCell id="ThAOJ68QW_HtHxLDYENI-38" value="" style="group" vertex="1" connectable="0" parent="1">
          <mxGeometry x="-10" y="-40" width="79" height="87" as="geometry" />
        </mxCell>
        <mxCell id="ThAOJ68QW_HtHxLDYENI-39" value="" style="swimlane;fontStyle=0;childLayout=stackLayout;horizontal=1;startSize=0;horizontalStack=0;resizeParent=1;resizeParentMax=0;resizeLast=0;collapsible=0;marginBottom=0;whiteSpace=wrap;html=1;strokeColor=none;fillColor=none;" vertex="1" parent="ThAOJ68QW_HtHxLDYENI-38">
          <mxGeometry y="27" width="79" height="60" as="geometry" />
        </mxCell>
        <mxCell id="ThAOJ68QW_HtHxLDYENI-40" value="K&lt;sub&gt;1&lt;/sub&gt;" style="text;align=left;verticalAlign=middle;spacingLeft=10;spacingRight=10;overflow=hidden;points=[[0,0.5],[1,0.5]];portConstraint=eastwest;rotatable=0;whiteSpace=wrap;html=1;shape=mxgraph.bootstrap.topButton;rSize=5;fillColor=#f5f5f5;fontColor=#333333;strokeColor=#666666;" vertex="1" parent="ThAOJ68QW_HtHxLDYENI-39">
          <mxGeometry width="79" height="30" as="geometry" />
        </mxCell>
        <mxCell id="ThAOJ68QW_HtHxLDYENI-41" value="K&lt;span style=&quot;font-size: 10px;&quot;&gt;&lt;sub&gt;5&lt;/sub&gt;&lt;/span&gt;" style="text;align=left;verticalAlign=middle;spacingLeft=10;spacingRight=10;overflow=hidden;points=[[0,0.5],[1,0.5]];portConstraint=eastwest;rotatable=0;whiteSpace=wrap;html=1;rSize=5;fillColor=#f5f5f5;fontColor=#333333;strokeColor=#666666;" vertex="1" parent="ThAOJ68QW_HtHxLDYENI-39">
          <mxGeometry y="30" width="79" height="30" as="geometry" />
        </mxCell>
        <mxCell id="ThAOJ68QW_HtHxLDYENI-42" value="5" style="rounded=0;whiteSpace=wrap;html=1;" vertex="1" parent="ThAOJ68QW_HtHxLDYENI-38">
          <mxGeometry width="29" height="27" as="geometry" />
        </mxCell>
        <mxCell id="ThAOJ68QW_HtHxLDYENI-46" value="" style="curved=1;endArrow=classic;html=1;rounded=0;fontSize=12;startSize=8;endSize=8;entryX=0.025;entryY=0.144;entryDx=0;entryDy=0;entryPerimeter=0;" edge="1" parent="1" target="ThAOJ68QW_HtHxLDYENI-34">
          <mxGeometry width="50" height="50" relative="1" as="geometry">
            <mxPoint x="-221" y="237" as="sourcePoint" />
            <mxPoint x="-20" y="220" as="targetPoint" />
            <Array as="points">
              <mxPoint x="-140" y="250" />
            </Array>
          </mxGeometry>
        </mxCell>
        <mxCell id="ThAOJ68QW_HtHxLDYENI-47" value="" style="curved=1;endArrow=classic;html=1;rounded=0;fontSize=12;startSize=8;endSize=8;entryX=0;entryY=0.5;entryDx=0;entryDy=0;exitX=0.759;exitY=0.65;exitDx=0;exitDy=0;exitPerimeter=0;" edge="1" parent="1" source="ThAOJ68QW_HtHxLDYENI-103" target="ThAOJ68QW_HtHxLDYENI-34">
          <mxGeometry width="50" height="50" relative="1" as="geometry">
            <mxPoint x="-200" y="250" as="sourcePoint" />
            <mxPoint x="-10" y="142" as="targetPoint" />
            <Array as="points">
              <mxPoint x="-160" y="260" />
              <mxPoint x="-90" y="250" />
            </Array>
          </mxGeometry>
        </mxCell>
        <mxCell id="ThAOJ68QW_HtHxLDYENI-52" value="" style="group" vertex="1" connectable="0" parent="1">
          <mxGeometry x="-10" y="60" width="79" height="87" as="geometry" />
        </mxCell>
        <mxCell id="ThAOJ68QW_HtHxLDYENI-53" value="" style="swimlane;fontStyle=0;childLayout=stackLayout;horizontal=1;startSize=0;horizontalStack=0;resizeParent=1;resizeParentMax=0;resizeLast=0;collapsible=0;marginBottom=0;whiteSpace=wrap;html=1;strokeColor=none;fillColor=none;" vertex="1" parent="ThAOJ68QW_HtHxLDYENI-52">
          <mxGeometry y="27" width="79" height="60" as="geometry" />
        </mxCell>
        <mxCell id="ThAOJ68QW_HtHxLDYENI-54" value="K&lt;span style=&quot;font-size: 10px;&quot;&gt;&lt;sub&gt;3&lt;/sub&gt;&lt;/span&gt;" style="text;align=left;verticalAlign=middle;spacingLeft=10;spacingRight=10;overflow=hidden;points=[[0,0.5],[1,0.5]];portConstraint=eastwest;rotatable=0;whiteSpace=wrap;html=1;shape=mxgraph.bootstrap.topButton;rSize=5;fillColor=#f5f5f5;fontColor=#333333;strokeColor=#666666;" vertex="1" parent="ThAOJ68QW_HtHxLDYENI-53">
          <mxGeometry width="79" height="30" as="geometry" />
        </mxCell>
        <mxCell id="ThAOJ68QW_HtHxLDYENI-55" value="" style="text;align=left;verticalAlign=middle;spacingLeft=10;spacingRight=10;overflow=hidden;points=[[0,0.5],[1,0.5]];portConstraint=eastwest;rotatable=0;whiteSpace=wrap;html=1;rSize=5;fillColor=#f5f5f5;fontColor=#333333;strokeColor=#666666;" vertex="1" parent="ThAOJ68QW_HtHxLDYENI-53">
          <mxGeometry y="30" width="79" height="30" as="geometry" />
        </mxCell>
        <mxCell id="ThAOJ68QW_HtHxLDYENI-56" value="3" style="rounded=0;whiteSpace=wrap;html=1;" vertex="1" parent="ThAOJ68QW_HtHxLDYENI-52">
          <mxGeometry width="29" height="27" as="geometry" />
        </mxCell>
        <mxCell id="ThAOJ68QW_HtHxLDYENI-57" value="" style="curved=1;endArrow=classic;html=1;rounded=0;fontSize=12;startSize=8;endSize=8;entryX=-0.025;entryY=0.9;entryDx=0;entryDy=0;exitX=0.759;exitY=0.65;exitDx=0;exitDy=0;exitPerimeter=0;entryPerimeter=0;" edge="1" parent="1" source="ThAOJ68QW_HtHxLDYENI-104" target="ThAOJ68QW_HtHxLDYENI-34">
          <mxGeometry width="50" height="50" relative="1" as="geometry">
            <mxPoint x="-140" y="270" as="sourcePoint" />
            <mxPoint x="-20" y="220" as="targetPoint" />
            <Array as="points">
              <mxPoint x="-90" y="260" />
            </Array>
          </mxGeometry>
        </mxCell>
        <mxCell id="ThAOJ68QW_HtHxLDYENI-59" value="" style="curved=1;endArrow=classic;html=1;rounded=0;fontSize=12;startSize=8;endSize=8;entryX=0;entryY=0.5;entryDx=0;entryDy=0;" edge="1" parent="1" target="ThAOJ68QW_HtHxLDYENI-33">
          <mxGeometry width="50" height="50" relative="1" as="geometry">
            <mxPoint x="-230" y="198" as="sourcePoint" />
            <mxPoint x="-90" y="147" as="targetPoint" />
            <Array as="points">
              <mxPoint x="-180" y="217" />
              <mxPoint x="-120" y="220" />
            </Array>
          </mxGeometry>
        </mxCell>
        <mxCell id="ThAOJ68QW_HtHxLDYENI-60" value="" style="curved=1;endArrow=classic;html=1;rounded=0;fontSize=12;startSize=8;endSize=8;entryX=0;entryY=0.5;entryDx=0;entryDy=0;" edge="1" parent="1" target="ThAOJ68QW_HtHxLDYENI-32">
          <mxGeometry width="50" height="50" relative="1" as="geometry">
            <mxPoint x="-230" y="217" as="sourcePoint" />
            <mxPoint x="-90" y="240" as="targetPoint" />
            <Array as="points">
              <mxPoint x="-180" y="230" />
              <mxPoint x="-140" y="230" />
            </Array>
          </mxGeometry>
        </mxCell>
        <mxCell id="ThAOJ68QW_HtHxLDYENI-61" value="" style="group" vertex="1" connectable="0" parent="1">
          <mxGeometry x="-10" y="-350" width="79" height="87" as="geometry" />
        </mxCell>
        <mxCell id="ThAOJ68QW_HtHxLDYENI-62" value="" style="swimlane;fontStyle=0;childLayout=stackLayout;horizontal=1;startSize=0;horizontalStack=0;resizeParent=1;resizeParentMax=0;resizeLast=0;collapsible=0;marginBottom=0;whiteSpace=wrap;html=1;strokeColor=none;fillColor=none;" vertex="1" parent="ThAOJ68QW_HtHxLDYENI-61">
          <mxGeometry y="27" width="79" height="60" as="geometry" />
        </mxCell>
        <mxCell id="ThAOJ68QW_HtHxLDYENI-63" value="K&lt;sub&gt;4&lt;/sub&gt;" style="text;align=left;verticalAlign=middle;spacingLeft=10;spacingRight=10;overflow=hidden;points=[[0,0.5],[1,0.5]];portConstraint=eastwest;rotatable=0;whiteSpace=wrap;html=1;shape=mxgraph.bootstrap.topButton;rSize=5;fillColor=#f5f5f5;fontColor=#333333;strokeColor=#666666;" vertex="1" parent="ThAOJ68QW_HtHxLDYENI-62">
          <mxGeometry width="79" height="30" as="geometry" />
        </mxCell>
        <mxCell id="ThAOJ68QW_HtHxLDYENI-64" value="" style="text;align=left;verticalAlign=middle;spacingLeft=10;spacingRight=10;overflow=hidden;points=[[0,0.5],[1,0.5]];portConstraint=eastwest;rotatable=0;whiteSpace=wrap;html=1;rSize=5;fillColor=#f5f5f5;fontColor=#333333;strokeColor=#666666;" vertex="1" parent="ThAOJ68QW_HtHxLDYENI-62">
          <mxGeometry y="30" width="79" height="30" as="geometry" />
        </mxCell>
        <mxCell id="ThAOJ68QW_HtHxLDYENI-65" value="3" style="rounded=0;whiteSpace=wrap;html=1;" vertex="1" parent="ThAOJ68QW_HtHxLDYENI-61">
          <mxGeometry width="29" height="27" as="geometry" />
        </mxCell>
        <mxCell id="ThAOJ68QW_HtHxLDYENI-66" value="" style="group" vertex="1" connectable="0" parent="1">
          <mxGeometry x="-10" y="-140" width="79" height="87" as="geometry" />
        </mxCell>
        <mxCell id="ThAOJ68QW_HtHxLDYENI-67" value="" style="swimlane;fontStyle=0;childLayout=stackLayout;horizontal=1;startSize=0;horizontalStack=0;resizeParent=1;resizeParentMax=0;resizeLast=0;collapsible=0;marginBottom=0;whiteSpace=wrap;html=1;strokeColor=none;fillColor=none;" vertex="1" parent="ThAOJ68QW_HtHxLDYENI-66">
          <mxGeometry y="27" width="79" height="60" as="geometry" />
        </mxCell>
        <mxCell id="ThAOJ68QW_HtHxLDYENI-68" value="K&lt;sub&gt;7&lt;/sub&gt;" style="text;align=left;verticalAlign=middle;spacingLeft=10;spacingRight=10;overflow=hidden;points=[[0,0.5],[1,0.5]];portConstraint=eastwest;rotatable=0;whiteSpace=wrap;html=1;shape=mxgraph.bootstrap.topButton;rSize=5;fillColor=#f5f5f5;fontColor=#333333;strokeColor=#666666;" vertex="1" parent="ThAOJ68QW_HtHxLDYENI-67">
          <mxGeometry width="79" height="30" as="geometry" />
        </mxCell>
        <mxCell id="ThAOJ68QW_HtHxLDYENI-69" value="" style="text;align=left;verticalAlign=middle;spacingLeft=10;spacingRight=10;overflow=hidden;points=[[0,0.5],[1,0.5]];portConstraint=eastwest;rotatable=0;whiteSpace=wrap;html=1;rSize=5;fillColor=#f5f5f5;fontColor=#333333;strokeColor=#666666;" vertex="1" parent="ThAOJ68QW_HtHxLDYENI-67">
          <mxGeometry y="30" width="79" height="30" as="geometry" />
        </mxCell>
        <mxCell id="ThAOJ68QW_HtHxLDYENI-70" value="5" style="rounded=0;whiteSpace=wrap;html=1;" vertex="1" parent="ThAOJ68QW_HtHxLDYENI-66">
          <mxGeometry width="29" height="27" as="geometry" />
        </mxCell>
        <mxCell id="ThAOJ68QW_HtHxLDYENI-58" value="" style="curved=1;endArrow=classic;html=1;rounded=0;fontSize=12;startSize=8;endSize=8;entryX=0;entryY=0;entryDx=0;entryDy=0;" edge="1" parent="1" target="ThAOJ68QW_HtHxLDYENI-32">
          <mxGeometry width="50" height="50" relative="1" as="geometry">
            <mxPoint x="-231" y="155" as="sourcePoint" />
            <mxPoint x="-91" y="160" as="targetPoint" />
            <Array as="points">
              <mxPoint x="-160" y="200" />
            </Array>
          </mxGeometry>
        </mxCell>
        <mxCell id="ThAOJ68QW_HtHxLDYENI-105" value="" style="curved=1;endArrow=classic;html=1;rounded=0;fontSize=12;startSize=8;endSize=8;" edge="1" parent="1">
          <mxGeometry width="50" height="50" relative="1" as="geometry">
            <mxPoint x="-230" y="140" as="sourcePoint" />
            <mxPoint x="-10" y="180" as="targetPoint" />
            <Array as="points">
              <mxPoint x="-180" y="140" />
              <mxPoint x="-160" y="180" />
            </Array>
          </mxGeometry>
        </mxCell>
        <mxCell id="ThAOJ68QW_HtHxLDYENI-106" value="" style="curved=1;endArrow=classic;html=1;rounded=0;fontSize=12;startSize=8;endSize=8;" edge="1" parent="1">
          <mxGeometry width="50" height="50" relative="1" as="geometry">
            <mxPoint x="-239" y="12.490000000000009" as="sourcePoint" />
            <mxPoint x="-19" y="160" as="targetPoint" />
            <Array as="points">
              <mxPoint x="-189" y="53" />
            </Array>
          </mxGeometry>
        </mxCell>
        <mxCell id="ThAOJ68QW_HtHxLDYENI-107" value="" style="curved=1;endArrow=classic;html=1;rounded=0;fontSize=12;startSize=8;endSize=8;entryX=0;entryY=0;entryDx=0;entryDy=0;" edge="1" parent="1" target="ThAOJ68QW_HtHxLDYENI-35">
          <mxGeometry width="50" height="50" relative="1" as="geometry">
            <mxPoint x="-234" y="76" as="sourcePoint" />
            <mxPoint x="-21" y="60" as="targetPoint" />
            <Array as="points">
              <mxPoint x="-164" y="139" />
            </Array>
          </mxGeometry>
        </mxCell>
        <mxCell id="ThAOJ68QW_HtHxLDYENI-108" value="" style="curved=1;endArrow=classic;html=1;rounded=0;fontSize=12;startSize=8;endSize=8;exitX=0.759;exitY=0.65;exitDx=0;exitDy=0;exitPerimeter=0;" edge="1" parent="1">
          <mxGeometry width="50" height="50" relative="1" as="geometry">
            <mxPoint x="-239" y="100" as="sourcePoint" />
            <mxPoint x="-10" y="170" as="targetPoint" />
            <Array as="points">
              <mxPoint x="-140" y="140" />
            </Array>
          </mxGeometry>
        </mxCell>
        <mxCell id="ThAOJ68QW_HtHxLDYENI-109" value="" style="curved=1;endArrow=classic;html=1;rounded=0;fontSize=12;startSize=8;endSize=8;exitX=0.759;exitY=0.65;exitDx=0;exitDy=0;exitPerimeter=0;entryX=0;entryY=0.5;entryDx=0;entryDy=0;" edge="1" parent="1" target="ThAOJ68QW_HtHxLDYENI-35">
          <mxGeometry width="50" height="50" relative="1" as="geometry">
            <mxPoint x="-239" y="120" as="sourcePoint" />
            <mxPoint x="-20" y="170" as="targetPoint" />
            <Array as="points">
              <mxPoint x="-70" y="180" />
            </Array>
          </mxGeometry>
        </mxCell>
        <mxCell id="ThAOJ68QW_HtHxLDYENI-110" value="" style="curved=1;endArrow=classic;html=1;rounded=0;fontSize=12;startSize=8;endSize=8;" edge="1" parent="1">
          <mxGeometry width="50" height="50" relative="1" as="geometry">
            <mxPoint x="-239" y="38" as="sourcePoint" />
            <mxPoint x="-20" y="160" as="targetPoint" />
            <Array as="points">
              <mxPoint x="-189" y="57" />
              <mxPoint x="-120" y="110" />
            </Array>
          </mxGeometry>
        </mxCell>
        <mxCell id="ThAOJ68QW_HtHxLDYENI-111" value="" style="curved=1;endArrow=classic;html=1;rounded=0;fontSize=12;startSize=8;endSize=8;" edge="1" parent="1">
          <mxGeometry width="50" height="50" relative="1" as="geometry">
            <mxPoint x="-239" y="57" as="sourcePoint" />
            <mxPoint x="-10" y="160" as="targetPoint" />
            <Array as="points">
              <mxPoint x="-189" y="70" />
              <mxPoint x="-130" y="120" />
            </Array>
          </mxGeometry>
        </mxCell>
        <mxCell id="ThAOJ68QW_HtHxLDYENI-112" value="" style="curved=1;endArrow=classic;html=1;rounded=0;fontSize=12;startSize=8;endSize=8;entryX=0;entryY=0;entryDx=0;entryDy=0;" edge="1" parent="1" target="ThAOJ68QW_HtHxLDYENI-35">
          <mxGeometry width="50" height="50" relative="1" as="geometry">
            <mxPoint x="-240" y="2" as="sourcePoint" />
            <mxPoint x="10" y="160" as="targetPoint" />
            <Array as="points">
              <mxPoint x="-160" y="40" />
            </Array>
          </mxGeometry>
        </mxCell>
        <mxCell id="ThAOJ68QW_HtHxLDYENI-113" value="" style="curved=1;endArrow=classic;html=1;rounded=0;fontSize=12;startSize=8;endSize=8;" edge="1" parent="1">
          <mxGeometry width="50" height="50" relative="1" as="geometry">
            <mxPoint x="-240" y="-20" as="sourcePoint" />
            <mxPoint y="160" as="targetPoint" />
            <Array as="points">
              <mxPoint x="-190" y="-20" />
              <mxPoint x="-170" y="20" />
            </Array>
          </mxGeometry>
        </mxCell>
        <mxCell id="ThAOJ68QW_HtHxLDYENI-114" value="" style="group" vertex="1" connectable="0" parent="1">
          <mxGeometry x="-310" y="-1130" width="79" height="87" as="geometry" />
        </mxCell>
        <mxCell id="ThAOJ68QW_HtHxLDYENI-115" value="" style="swimlane;fontStyle=0;childLayout=stackLayout;horizontal=1;startSize=0;horizontalStack=0;resizeParent=1;resizeParentMax=0;resizeLast=0;collapsible=0;marginBottom=0;whiteSpace=wrap;html=1;strokeColor=none;fillColor=none;" vertex="1" parent="ThAOJ68QW_HtHxLDYENI-114">
          <mxGeometry y="27" width="79" height="240" as="geometry" />
        </mxCell>
        <mxCell id="ThAOJ68QW_HtHxLDYENI-116" value="" style="text;align=left;verticalAlign=middle;spacingLeft=10;spacingRight=10;overflow=hidden;points=[[0,0.5],[1,0.5]];portConstraint=eastwest;rotatable=0;whiteSpace=wrap;html=1;shape=mxgraph.bootstrap.topButton;rSize=5;fillColor=#f5f5f5;fontColor=#333333;strokeColor=#666666;" vertex="1" parent="ThAOJ68QW_HtHxLDYENI-115">
          <mxGeometry width="79" height="30" as="geometry" />
        </mxCell>
        <mxCell id="ThAOJ68QW_HtHxLDYENI-117" value="" style="text;align=left;verticalAlign=middle;spacingLeft=10;spacingRight=10;overflow=hidden;points=[[0,0.5],[1,0.5]];portConstraint=eastwest;rotatable=0;whiteSpace=wrap;html=1;rSize=5;fillColor=#f5f5f5;fontColor=#333333;strokeColor=#666666;" vertex="1" parent="ThAOJ68QW_HtHxLDYENI-115">
          <mxGeometry y="30" width="79" height="30" as="geometry" />
        </mxCell>
        <mxCell id="ThAOJ68QW_HtHxLDYENI-119" value="" style="text;align=left;verticalAlign=middle;spacingLeft=10;spacingRight=10;overflow=hidden;points=[[0,0.5],[1,0.5]];portConstraint=eastwest;rotatable=0;whiteSpace=wrap;html=1;shape=mxgraph.bootstrap.topButton;rSize=5;fillColor=#f5f5f5;fontColor=#333333;strokeColor=#666666;" vertex="1" parent="ThAOJ68QW_HtHxLDYENI-115">
          <mxGeometry y="60" width="79" height="30" as="geometry" />
        </mxCell>
        <mxCell id="ThAOJ68QW_HtHxLDYENI-120" value="" style="text;align=left;verticalAlign=middle;spacingLeft=10;spacingRight=10;overflow=hidden;points=[[0,0.5],[1,0.5]];portConstraint=eastwest;rotatable=0;whiteSpace=wrap;html=1;rSize=5;fillColor=#f5f5f5;fontColor=#333333;strokeColor=#666666;" vertex="1" parent="ThAOJ68QW_HtHxLDYENI-115">
          <mxGeometry y="90" width="79" height="30" as="geometry" />
        </mxCell>
        <mxCell id="ThAOJ68QW_HtHxLDYENI-121" value="" style="text;align=left;verticalAlign=middle;spacingLeft=10;spacingRight=10;overflow=hidden;points=[[0,0.5],[1,0.5]];portConstraint=eastwest;rotatable=0;whiteSpace=wrap;html=1;shape=mxgraph.bootstrap.topButton;rSize=5;fillColor=#f5f5f5;fontColor=#333333;strokeColor=#666666;" vertex="1" parent="ThAOJ68QW_HtHxLDYENI-115">
          <mxGeometry y="120" width="79" height="30" as="geometry" />
        </mxCell>
        <mxCell id="ThAOJ68QW_HtHxLDYENI-122" value="" style="text;align=left;verticalAlign=middle;spacingLeft=10;spacingRight=10;overflow=hidden;points=[[0,0.5],[1,0.5]];portConstraint=eastwest;rotatable=0;whiteSpace=wrap;html=1;rSize=5;fillColor=#f5f5f5;fontColor=#333333;strokeColor=#666666;" vertex="1" parent="ThAOJ68QW_HtHxLDYENI-115">
          <mxGeometry y="150" width="79" height="30" as="geometry" />
        </mxCell>
        <mxCell id="ThAOJ68QW_HtHxLDYENI-123" value="" style="text;align=left;verticalAlign=middle;spacingLeft=10;spacingRight=10;overflow=hidden;points=[[0,0.5],[1,0.5]];portConstraint=eastwest;rotatable=0;whiteSpace=wrap;html=1;shape=mxgraph.bootstrap.topButton;rSize=5;fillColor=#f5f5f5;fontColor=#333333;strokeColor=#666666;" vertex="1" parent="ThAOJ68QW_HtHxLDYENI-115">
          <mxGeometry y="180" width="79" height="30" as="geometry" />
        </mxCell>
        <mxCell id="ThAOJ68QW_HtHxLDYENI-124" value="" style="text;align=left;verticalAlign=middle;spacingLeft=10;spacingRight=10;overflow=hidden;points=[[0,0.5],[1,0.5]];portConstraint=eastwest;rotatable=0;whiteSpace=wrap;html=1;rSize=5;fillColor=#f5f5f5;fontColor=#333333;strokeColor=#666666;" vertex="1" parent="ThAOJ68QW_HtHxLDYENI-115">
          <mxGeometry y="210" width="79" height="30" as="geometry" />
        </mxCell>
        <mxCell id="ThAOJ68QW_HtHxLDYENI-118" value="3" style="rounded=0;whiteSpace=wrap;html=1;" vertex="1" parent="ThAOJ68QW_HtHxLDYENI-114">
          <mxGeometry width="29" height="27" as="geometry" />
        </mxCell>
        <mxCell id="ThAOJ68QW_HtHxLDYENI-125" value="" style="group" vertex="1" connectable="0" parent="1">
          <mxGeometry x="-100" y="-1230" width="79" height="87" as="geometry" />
        </mxCell>
        <mxCell id="ThAOJ68QW_HtHxLDYENI-126" value="" style="swimlane;fontStyle=0;childLayout=stackLayout;horizontal=1;startSize=0;horizontalStack=0;resizeParent=1;resizeParentMax=0;resizeLast=0;collapsible=0;marginBottom=0;whiteSpace=wrap;html=1;strokeColor=none;fillColor=none;" vertex="1" parent="ThAOJ68QW_HtHxLDYENI-125">
          <mxGeometry y="27" width="79" height="60" as="geometry" />
        </mxCell>
        <mxCell id="ThAOJ68QW_HtHxLDYENI-127" value="K&lt;sub&gt;4&lt;/sub&gt;" style="text;align=left;verticalAlign=middle;spacingLeft=10;spacingRight=10;overflow=hidden;points=[[0,0.5],[1,0.5]];portConstraint=eastwest;rotatable=0;whiteSpace=wrap;html=1;shape=mxgraph.bootstrap.topButton;rSize=5;fillColor=#f5f5f5;fontColor=#333333;strokeColor=#666666;" vertex="1" parent="ThAOJ68QW_HtHxLDYENI-126">
          <mxGeometry width="79" height="30" as="geometry" />
        </mxCell>
        <mxCell id="ThAOJ68QW_HtHxLDYENI-128" value="" style="text;align=left;verticalAlign=middle;spacingLeft=10;spacingRight=10;overflow=hidden;points=[[0,0.5],[1,0.5]];portConstraint=eastwest;rotatable=0;whiteSpace=wrap;html=1;rSize=5;fillColor=#f5f5f5;fontColor=#333333;strokeColor=#666666;" vertex="1" parent="ThAOJ68QW_HtHxLDYENI-126">
          <mxGeometry y="30" width="79" height="30" as="geometry" />
        </mxCell>
        <mxCell id="ThAOJ68QW_HtHxLDYENI-129" value="3" style="rounded=0;whiteSpace=wrap;html=1;" vertex="1" parent="ThAOJ68QW_HtHxLDYENI-125">
          <mxGeometry width="29" height="27" as="geometry" />
        </mxCell>
        <mxCell id="ThAOJ68QW_HtHxLDYENI-131" value="" style="group" vertex="1" connectable="0" parent="1">
          <mxGeometry x="-100" y="-1130" width="79" height="87" as="geometry" />
        </mxCell>
        <mxCell id="ThAOJ68QW_HtHxLDYENI-132" value="" style="swimlane;fontStyle=0;childLayout=stackLayout;horizontal=1;startSize=0;horizontalStack=0;resizeParent=1;resizeParentMax=0;resizeLast=0;collapsible=0;marginBottom=0;whiteSpace=wrap;html=1;strokeColor=none;fillColor=none;" vertex="1" parent="ThAOJ68QW_HtHxLDYENI-131">
          <mxGeometry y="27" width="79" height="60" as="geometry" />
        </mxCell>
        <mxCell id="ThAOJ68QW_HtHxLDYENI-133" value="K&lt;span style=&quot;font-size: 10px;&quot;&gt;&lt;sub&gt;1&lt;/sub&gt;&lt;/span&gt;" style="text;align=left;verticalAlign=middle;spacingLeft=10;spacingRight=10;overflow=hidden;points=[[0,0.5],[1,0.5]];portConstraint=eastwest;rotatable=0;whiteSpace=wrap;html=1;shape=mxgraph.bootstrap.topButton;rSize=5;fillColor=#f5f5f5;fontColor=#333333;strokeColor=#666666;" vertex="1" parent="ThAOJ68QW_HtHxLDYENI-132">
          <mxGeometry width="79" height="30" as="geometry" />
        </mxCell>
        <mxCell id="ThAOJ68QW_HtHxLDYENI-134" value="K&lt;span style=&quot;font-size: 10px;&quot;&gt;&lt;sub&gt;5&lt;/sub&gt;&lt;/span&gt;" style="text;align=left;verticalAlign=middle;spacingLeft=10;spacingRight=10;overflow=hidden;points=[[0,0.5],[1,0.5]];portConstraint=eastwest;rotatable=0;whiteSpace=wrap;html=1;rSize=5;fillColor=#f5f5f5;fontColor=#333333;strokeColor=#666666;" vertex="1" parent="ThAOJ68QW_HtHxLDYENI-132">
          <mxGeometry y="30" width="79" height="30" as="geometry" />
        </mxCell>
        <mxCell id="ThAOJ68QW_HtHxLDYENI-135" value="3" style="rounded=0;whiteSpace=wrap;html=1;" vertex="1" parent="ThAOJ68QW_HtHxLDYENI-131">
          <mxGeometry width="29" height="27" as="geometry" />
        </mxCell>
        <mxCell id="ThAOJ68QW_HtHxLDYENI-136" value="" style="group" vertex="1" connectable="0" parent="1">
          <mxGeometry x="-100" y="-1030" width="79" height="87" as="geometry" />
        </mxCell>
        <mxCell id="ThAOJ68QW_HtHxLDYENI-137" value="" style="swimlane;fontStyle=0;childLayout=stackLayout;horizontal=1;startSize=0;horizontalStack=0;resizeParent=1;resizeParentMax=0;resizeLast=0;collapsible=0;marginBottom=0;whiteSpace=wrap;html=1;strokeColor=none;fillColor=none;" vertex="1" parent="ThAOJ68QW_HtHxLDYENI-136">
          <mxGeometry y="27" width="79" height="60" as="geometry" />
        </mxCell>
        <mxCell id="ThAOJ68QW_HtHxLDYENI-138" value="K&lt;span style=&quot;font-size: 8.33333px;&quot;&gt;&lt;sub&gt;3&lt;/sub&gt;&lt;/span&gt;" style="text;align=left;verticalAlign=middle;spacingLeft=10;spacingRight=10;overflow=hidden;points=[[0,0.5],[1,0.5]];portConstraint=eastwest;rotatable=0;whiteSpace=wrap;html=1;shape=mxgraph.bootstrap.topButton;rSize=5;fillColor=#f5f5f5;fontColor=#333333;strokeColor=#666666;" vertex="1" parent="ThAOJ68QW_HtHxLDYENI-137">
          <mxGeometry width="79" height="30" as="geometry" />
        </mxCell>
        <mxCell id="ThAOJ68QW_HtHxLDYENI-139" value="" style="text;align=left;verticalAlign=middle;spacingLeft=10;spacingRight=10;overflow=hidden;points=[[0,0.5],[1,0.5]];portConstraint=eastwest;rotatable=0;whiteSpace=wrap;html=1;rSize=5;fillColor=#f5f5f5;fontColor=#333333;strokeColor=#666666;" vertex="1" parent="ThAOJ68QW_HtHxLDYENI-137">
          <mxGeometry y="30" width="79" height="30" as="geometry" />
        </mxCell>
        <mxCell id="ThAOJ68QW_HtHxLDYENI-140" value="3" style="rounded=0;whiteSpace=wrap;html=1;" vertex="1" parent="ThAOJ68QW_HtHxLDYENI-136">
          <mxGeometry width="29" height="27" as="geometry" />
        </mxCell>
        <mxCell id="ThAOJ68QW_HtHxLDYENI-141" value="" style="group" vertex="1" connectable="0" parent="1">
          <mxGeometry x="-100" y="-930" width="79" height="87" as="geometry" />
        </mxCell>
        <mxCell id="ThAOJ68QW_HtHxLDYENI-142" value="" style="swimlane;fontStyle=0;childLayout=stackLayout;horizontal=1;startSize=0;horizontalStack=0;resizeParent=1;resizeParentMax=0;resizeLast=0;collapsible=0;marginBottom=0;whiteSpace=wrap;html=1;strokeColor=none;fillColor=none;" vertex="1" parent="ThAOJ68QW_HtHxLDYENI-141">
          <mxGeometry y="27" width="79" height="60" as="geometry" />
        </mxCell>
        <mxCell id="ThAOJ68QW_HtHxLDYENI-143" value="K&lt;sub&gt;0&lt;/sub&gt;" style="text;align=left;verticalAlign=middle;spacingLeft=10;spacingRight=10;overflow=hidden;points=[[0,0.5],[1,0.5]];portConstraint=eastwest;rotatable=0;whiteSpace=wrap;html=1;shape=mxgraph.bootstrap.topButton;rSize=5;fillColor=#f5f5f5;fontColor=#333333;strokeColor=#666666;" vertex="1" parent="ThAOJ68QW_HtHxLDYENI-142">
          <mxGeometry width="79" height="30" as="geometry" />
        </mxCell>
        <mxCell id="ThAOJ68QW_HtHxLDYENI-144" value="" style="text;align=left;verticalAlign=middle;spacingLeft=10;spacingRight=10;overflow=hidden;points=[[0,0.5],[1,0.5]];portConstraint=eastwest;rotatable=0;whiteSpace=wrap;html=1;rSize=5;fillColor=#f5f5f5;fontColor=#333333;strokeColor=#666666;" vertex="1" parent="ThAOJ68QW_HtHxLDYENI-142">
          <mxGeometry y="30" width="79" height="30" as="geometry" />
        </mxCell>
        <mxCell id="ThAOJ68QW_HtHxLDYENI-145" value="1" style="rounded=0;whiteSpace=wrap;html=1;" vertex="1" parent="ThAOJ68QW_HtHxLDYENI-141">
          <mxGeometry width="29" height="27" as="geometry" />
        </mxCell>
        <mxCell id="ThAOJ68QW_HtHxLDYENI-146" value="" style="curved=1;endArrow=classic;html=1;rounded=0;fontSize=12;startSize=8;endSize=8;entryX=-0.013;entryY=1.1;entryDx=0;entryDy=0;entryPerimeter=0;" edge="1" parent="1" target="ThAOJ68QW_HtHxLDYENI-156">
          <mxGeometry width="50" height="50" relative="1" as="geometry">
            <mxPoint x="-250" y="-1080" as="sourcePoint" />
            <mxPoint x="-200" y="-1130" as="targetPoint" />
            <Array as="points">
              <mxPoint x="-200" y="-1080" />
              <mxPoint x="-200" y="-1170" />
            </Array>
          </mxGeometry>
        </mxCell>
        <mxCell id="ThAOJ68QW_HtHxLDYENI-147" value="" style="curved=1;endArrow=classic;html=1;rounded=0;fontSize=12;startSize=8;endSize=8;entryX=0;entryY=0.1;entryDx=0;entryDy=0;entryPerimeter=0;" edge="1" parent="1" target="ThAOJ68QW_HtHxLDYENI-128">
          <mxGeometry width="50" height="50" relative="1" as="geometry">
            <mxPoint x="-250" y="-1061.5" as="sourcePoint" />
            <mxPoint x="-200" y="-1111.5" as="targetPoint" />
            <Array as="points">
              <mxPoint x="-200" y="-1061.5" />
              <mxPoint x="-180" y="-1100" />
            </Array>
          </mxGeometry>
        </mxCell>
        <mxCell id="ThAOJ68QW_HtHxLDYENI-148" value="" style="curved=1;endArrow=classic;html=1;rounded=0;fontSize=12;startSize=8;endSize=8;entryX=-0.038;entryY=0.067;entryDx=0;entryDy=0;entryPerimeter=0;" edge="1" parent="1" target="ThAOJ68QW_HtHxLDYENI-134">
          <mxGeometry width="50" height="50" relative="1" as="geometry">
            <mxPoint x="-250" y="-1020" as="sourcePoint" />
            <mxPoint x="-200" y="-1070" as="targetPoint" />
            <Array as="points">
              <mxPoint x="-200" y="-1020" />
              <mxPoint x="-190" y="-1070" />
            </Array>
          </mxGeometry>
        </mxCell>
        <mxCell id="ThAOJ68QW_HtHxLDYENI-149" value="" style="curved=1;endArrow=classic;html=1;rounded=0;fontSize=12;startSize=8;endSize=8;entryX=0;entryY=0.5;entryDx=0;entryDy=0;" edge="1" parent="1" target="ThAOJ68QW_HtHxLDYENI-137">
          <mxGeometry width="50" height="50" relative="1" as="geometry">
            <mxPoint x="-250" y="-993" as="sourcePoint" />
            <mxPoint x="-200" y="-1043" as="targetPoint" />
            <Array as="points">
              <mxPoint x="-200" y="-993" />
              <mxPoint x="-180" y="-950" />
            </Array>
          </mxGeometry>
        </mxCell>
        <mxCell id="ThAOJ68QW_HtHxLDYENI-150" value="" style="curved=1;endArrow=classic;html=1;rounded=0;fontSize=12;startSize=8;endSize=8;entryX=0.013;entryY=0.9;entryDx=0;entryDy=0;entryPerimeter=0;" edge="1" parent="1" target="ThAOJ68QW_HtHxLDYENI-143">
          <mxGeometry width="50" height="50" relative="1" as="geometry">
            <mxPoint x="-250" y="-940" as="sourcePoint" />
            <mxPoint x="-200" y="-990" as="targetPoint" />
            <Array as="points">
              <mxPoint x="-200" y="-940" />
              <mxPoint x="-180" y="-900" />
              <mxPoint x="-140" y="-895" />
              <mxPoint x="-120" y="-890" />
            </Array>
          </mxGeometry>
        </mxCell>
        <mxCell id="ThAOJ68QW_HtHxLDYENI-151" value="" style="curved=1;endArrow=classic;html=1;rounded=0;fontSize=12;startSize=8;endSize=8;entryX=-0.013;entryY=0.3;entryDx=0;entryDy=0;entryPerimeter=0;" edge="1" parent="1" target="ThAOJ68QW_HtHxLDYENI-143">
          <mxGeometry width="50" height="50" relative="1" as="geometry">
            <mxPoint x="-250" y="-961.5" as="sourcePoint" />
            <mxPoint x="-200" y="-1011.5" as="targetPoint" />
            <Array as="points">
              <mxPoint x="-200" y="-961.5" />
              <mxPoint x="-190" y="-930" />
            </Array>
          </mxGeometry>
        </mxCell>
        <mxCell id="ThAOJ68QW_HtHxLDYENI-152" value="" style="curved=1;endArrow=classic;html=1;rounded=0;fontSize=12;startSize=8;endSize=8;entryX=-0.013;entryY=0.267;entryDx=0;entryDy=0;entryPerimeter=0;" edge="1" parent="1" target="ThAOJ68QW_HtHxLDYENI-144">
          <mxGeometry width="50" height="50" relative="1" as="geometry">
            <mxPoint x="-250" y="-910" as="sourcePoint" />
            <mxPoint x="-200" y="-960" as="targetPoint" />
            <Array as="points">
              <mxPoint x="-200" y="-910" />
              <mxPoint x="-190" y="-890" />
            </Array>
          </mxGeometry>
        </mxCell>
        <mxCell id="ThAOJ68QW_HtHxLDYENI-153" value="" style="curved=1;endArrow=classic;html=1;rounded=0;fontSize=12;startSize=8;endSize=8;entryX=0.013;entryY=0.833;entryDx=0;entryDy=0;entryPerimeter=0;" edge="1" parent="1" target="ThAOJ68QW_HtHxLDYENI-144">
          <mxGeometry width="50" height="50" relative="1" as="geometry">
            <mxPoint x="-250" y="-880" as="sourcePoint" />
            <mxPoint x="-200" y="-930" as="targetPoint" />
            <Array as="points">
              <mxPoint x="-200" y="-880" />
              <mxPoint x="-200" y="-870" />
            </Array>
          </mxGeometry>
        </mxCell>
        <mxCell id="ThAOJ68QW_HtHxLDYENI-154" value="" style="group" vertex="1" connectable="0" parent="1">
          <mxGeometry x="-100" y="-1330" width="79" height="87" as="geometry" />
        </mxCell>
        <mxCell id="ThAOJ68QW_HtHxLDYENI-155" value="" style="swimlane;fontStyle=0;childLayout=stackLayout;horizontal=1;startSize=0;horizontalStack=0;resizeParent=1;resizeParentMax=0;resizeLast=0;collapsible=0;marginBottom=0;whiteSpace=wrap;html=1;strokeColor=none;fillColor=none;" vertex="1" parent="ThAOJ68QW_HtHxLDYENI-154">
          <mxGeometry y="27" width="79" height="60" as="geometry" />
        </mxCell>
        <mxCell id="ThAOJ68QW_HtHxLDYENI-156" value="K&lt;sub&gt;2&lt;/sub&gt;" style="text;align=left;verticalAlign=middle;spacingLeft=10;spacingRight=10;overflow=hidden;points=[[0,0.5],[1,0.5]];portConstraint=eastwest;rotatable=0;whiteSpace=wrap;html=1;shape=mxgraph.bootstrap.topButton;rSize=5;fillColor=#f5f5f5;fontColor=#333333;strokeColor=#666666;" vertex="1" parent="ThAOJ68QW_HtHxLDYENI-155">
          <mxGeometry width="79" height="30" as="geometry" />
        </mxCell>
        <mxCell id="ThAOJ68QW_HtHxLDYENI-157" value="K&lt;sub&gt;6&lt;/sub&gt;" style="text;align=left;verticalAlign=middle;spacingLeft=10;spacingRight=10;overflow=hidden;points=[[0,0.5],[1,0.5]];portConstraint=eastwest;rotatable=0;whiteSpace=wrap;html=1;rSize=5;fillColor=#f5f5f5;fontColor=#333333;strokeColor=#666666;" vertex="1" parent="ThAOJ68QW_HtHxLDYENI-155">
          <mxGeometry y="30" width="79" height="30" as="geometry" />
        </mxCell>
        <mxCell id="ThAOJ68QW_HtHxLDYENI-158" value="3" style="rounded=0;whiteSpace=wrap;html=1;" vertex="1" parent="ThAOJ68QW_HtHxLDYENI-154">
          <mxGeometry width="29" height="27" as="geometry" />
        </mxCell>
        <mxCell id="ThAOJ68QW_HtHxLDYENI-160" value="" style="curved=1;endArrow=classic;html=1;rounded=0;fontSize=12;startSize=8;endSize=8;entryX=0;entryY=0.5;entryDx=0;entryDy=0;" edge="1" parent="1" target="ThAOJ68QW_HtHxLDYENI-55">
          <mxGeometry width="50" height="50" relative="1" as="geometry">
            <mxPoint x="-240" y="-40" as="sourcePoint" />
            <mxPoint x="-190" y="-90" as="targetPoint" />
            <Array as="points">
              <mxPoint x="-190" y="-40" />
            </Array>
          </mxGeometry>
        </mxCell>
        <mxCell id="ThAOJ68QW_HtHxLDYENI-161" value="" style="curved=1;endArrow=classic;html=1;rounded=0;fontSize=12;startSize=8;endSize=8;entryX=0;entryY=0.833;entryDx=0;entryDy=0;entryPerimeter=0;" edge="1" parent="1" target="ThAOJ68QW_HtHxLDYENI-54">
          <mxGeometry width="50" height="50" relative="1" as="geometry">
            <mxPoint x="-240" y="-63" as="sourcePoint" />
            <mxPoint x="-190" y="-113" as="targetPoint" />
            <Array as="points">
              <mxPoint x="-190" y="-63" />
              <mxPoint x="-180" y="-30" />
            </Array>
          </mxGeometry>
        </mxCell>
        <mxCell id="ThAOJ68QW_HtHxLDYENI-162" value="" style="curved=1;endArrow=classic;html=1;rounded=0;fontSize=12;startSize=8;endSize=8;entryX=0.013;entryY=0.267;entryDx=0;entryDy=0;entryPerimeter=0;" edge="1" parent="1" target="ThAOJ68QW_HtHxLDYENI-28">
          <mxGeometry width="50" height="50" relative="1" as="geometry">
            <mxPoint x="-231" y="-340" as="sourcePoint" />
            <mxPoint x="-181" y="-390" as="targetPoint" />
            <Array as="points">
              <mxPoint x="-181" y="-340" />
              <mxPoint x="-170" y="-350" />
            </Array>
          </mxGeometry>
        </mxCell>
        <mxCell id="ThAOJ68QW_HtHxLDYENI-163" value="" style="curved=1;endArrow=classic;html=1;rounded=0;fontSize=12;startSize=8;endSize=8;entryX=-0.051;entryY=0.833;entryDx=0;entryDy=0;entryPerimeter=0;" edge="1" parent="1" target="ThAOJ68QW_HtHxLDYENI-28">
          <mxGeometry width="50" height="50" relative="1" as="geometry">
            <mxPoint x="-231" y="-320" as="sourcePoint" />
            <mxPoint x="-181" y="-370" as="targetPoint" />
            <Array as="points">
              <mxPoint x="-181" y="-320" />
              <mxPoint x="-180" y="-340" />
            </Array>
          </mxGeometry>
        </mxCell>
        <mxCell id="ThAOJ68QW_HtHxLDYENI-164" value="" style="curved=1;endArrow=classic;html=1;rounded=0;fontSize=12;startSize=8;endSize=8;entryX=0;entryY=0.75;entryDx=0;entryDy=0;" edge="1" parent="1" target="ThAOJ68QW_HtHxLDYENI-27">
          <mxGeometry width="50" height="50" relative="1" as="geometry">
            <mxPoint x="-231" y="-300" as="sourcePoint" />
            <mxPoint x="-181" y="-350" as="targetPoint" />
            <Array as="points">
              <mxPoint x="-181" y="-300" />
              <mxPoint x="-160" y="-320" />
            </Array>
          </mxGeometry>
        </mxCell>
        <mxCell id="ThAOJ68QW_HtHxLDYENI-165" value="" style="curved=1;endArrow=classic;html=1;rounded=0;fontSize=12;startSize=8;endSize=8;entryX=-0.013;entryY=0.9;entryDx=0;entryDy=0;entryPerimeter=0;" edge="1" parent="1" target="ThAOJ68QW_HtHxLDYENI-29">
          <mxGeometry width="50" height="50" relative="1" as="geometry">
            <mxPoint x="-230" y="-281.5" as="sourcePoint" />
            <mxPoint x="-180" y="-331.5" as="targetPoint" />
            <Array as="points">
              <mxPoint x="-180" y="-281.5" />
              <mxPoint x="-170" y="-300" />
            </Array>
          </mxGeometry>
        </mxCell>
        <mxCell id="ThAOJ68QW_HtHxLDYENI-166" value="" style="curved=1;endArrow=classic;html=1;rounded=0;fontSize=12;startSize=8;endSize=8;entryX=-0.051;entryY=0.133;entryDx=0;entryDy=0;entryPerimeter=0;" edge="1" parent="1" target="ThAOJ68QW_HtHxLDYENI-63">
          <mxGeometry width="50" height="50" relative="1" as="geometry">
            <mxPoint x="-231" y="-260" as="sourcePoint" />
            <mxPoint x="-181" y="-310" as="targetPoint" />
            <Array as="points">
              <mxPoint x="-181" y="-260" />
              <mxPoint x="-180" y="-270" />
            </Array>
          </mxGeometry>
        </mxCell>
        <mxCell id="ThAOJ68QW_HtHxLDYENI-167" value="" style="curved=1;endArrow=classic;html=1;rounded=0;fontSize=12;startSize=8;endSize=8;entryX=-0.051;entryY=0.767;entryDx=0;entryDy=0;entryPerimeter=0;" edge="1" parent="1" target="ThAOJ68QW_HtHxLDYENI-63">
          <mxGeometry width="50" height="50" relative="1" as="geometry">
            <mxPoint x="-231" y="-243" as="sourcePoint" />
            <mxPoint x="-181" y="-293" as="targetPoint" />
            <Array as="points">
              <mxPoint x="-181" y="-243" />
              <mxPoint x="-180" y="-260" />
            </Array>
          </mxGeometry>
        </mxCell>
        <mxCell id="ThAOJ68QW_HtHxLDYENI-168" value="" style="curved=1;endArrow=classic;html=1;rounded=0;fontSize=12;startSize=8;endSize=8;entryX=-0.051;entryY=0.3;entryDx=0;entryDy=0;entryPerimeter=0;" edge="1" parent="1" target="ThAOJ68QW_HtHxLDYENI-64">
          <mxGeometry width="50" height="50" relative="1" as="geometry">
            <mxPoint x="-231" y="-220" as="sourcePoint" />
            <mxPoint x="-30" y="-180" as="targetPoint" />
            <Array as="points">
              <mxPoint x="-181" y="-220" />
              <mxPoint x="-180" y="-240" />
            </Array>
          </mxGeometry>
        </mxCell>
        <mxCell id="ThAOJ68QW_HtHxLDYENI-169" value="" style="curved=1;endArrow=classic;html=1;rounded=0;fontSize=12;startSize=8;endSize=8;entryX=0.013;entryY=0.767;entryDx=0;entryDy=0;entryPerimeter=0;" edge="1" parent="1" target="ThAOJ68QW_HtHxLDYENI-64">
          <mxGeometry width="50" height="50" relative="1" as="geometry">
            <mxPoint x="-231" y="-200" as="sourcePoint" />
            <mxPoint x="-20" y="-170" as="targetPoint" />
            <Array as="points">
              <mxPoint x="-181" y="-200" />
              <mxPoint x="-170" y="-220" />
            </Array>
          </mxGeometry>
        </mxCell>
        <mxCell id="ThAOJ68QW_HtHxLDYENI-170" value="" style="curved=1;endArrow=classic;html=1;rounded=0;fontSize=12;startSize=8;endSize=8;entryX=0.038;entryY=0.067;entryDx=0;entryDy=0;entryPerimeter=0;" edge="1" parent="1" target="ThAOJ68QW_HtHxLDYENI-69">
          <mxGeometry width="50" height="50" relative="1" as="geometry">
            <mxPoint x="-221" y="-143" as="sourcePoint" />
            <mxPoint x="-181" y="-231.5" as="targetPoint" />
            <Array as="points">
              <mxPoint x="-160" y="-150" />
              <mxPoint x="-100" y="-110" />
            </Array>
          </mxGeometry>
        </mxCell>
        <mxCell id="ThAOJ68QW_HtHxLDYENI-171" value="" style="curved=1;endArrow=classic;html=1;rounded=0;fontSize=12;startSize=8;endSize=8;entryX=-0.038;entryY=0.067;entryDx=0;entryDy=0;entryPerimeter=0;" edge="1" parent="1" target="ThAOJ68QW_HtHxLDYENI-41">
          <mxGeometry width="50" height="50" relative="1" as="geometry">
            <mxPoint x="-223" y="-123" as="sourcePoint" />
            <mxPoint x="-181" y="-213" as="targetPoint" />
            <Array as="points">
              <mxPoint x="-190" y="-123" />
              <mxPoint x="-150" y="-110" />
              <mxPoint x="-90" y="-70" />
            </Array>
          </mxGeometry>
        </mxCell>
        <mxCell id="ThAOJ68QW_HtHxLDYENI-172" value="" style="curved=1;endArrow=classic;html=1;rounded=0;fontSize=12;startSize=8;endSize=8;entryX=0;entryY=0.5;entryDx=0;entryDy=0;" edge="1" parent="1" target="ThAOJ68QW_HtHxLDYENI-54">
          <mxGeometry width="50" height="50" relative="1" as="geometry">
            <mxPoint x="-240" y="-81.5" as="sourcePoint" />
            <mxPoint x="-190" y="-131.5" as="targetPoint" />
            <Array as="points">
              <mxPoint x="-190" y="-81.5" />
              <mxPoint x="-180" y="-60" />
            </Array>
          </mxGeometry>
        </mxCell>
      </root>
    </mxGraphModel>
  </diagram>
</mxfile>
